<?xml version="1.0" encoding="UTF-8" standalone="no"?>
<!-- Created with Inkscape (http://www.inkscape.org/) -->

<svg
   xmlns:dc="http://purl.org/dc/elements/1.1/"
   xmlns:cc="http://creativecommons.org/ns#"
   xmlns:rdf="http://www.w3.org/1999/02/22-rdf-syntax-ns#"
   xmlns:svg="http://www.w3.org/2000/svg"
   xmlns="http://www.w3.org/2000/svg"
   xmlns:sodipodi="http://sodipodi.sourceforge.net/DTD/sodipodi-0.dtd"
   xmlns:inkscape="http://www.inkscape.org/namespaces/inkscape"
   width="87.705246mm"
   height="11.90625mm"
   viewBox="0 0 87.705246 11.90625"
   version="1.1"
   id="svg8"
   inkscape:version="0.92.3 (2405546, 2018-03-11)"
   sodipodi:docname="monologo.svg">
  <defs
     id="defs2" />
  <sodipodi:namedview
     id="base"
     pagecolor="#ffffff"
     bordercolor="#666666"
     borderopacity="1.0"
     inkscape:pageopacity="0.0"
     inkscape:pageshadow="2"
     inkscape:zoom="1.979899"
     inkscape:cx="149.78233"
     inkscape:cy="-25.320511"
     inkscape:document-units="mm"
     inkscape:current-layer="layer1"
     showgrid="false"
     fit-margin-top="0"
     fit-margin-left="0"
     fit-margin-right="0"
     fit-margin-bottom="0"
     inkscape:window-width="1920"
     inkscape:window-height="1012"
     inkscape:window-x="0"
     inkscape:window-y="1112"
     inkscape:window-maximized="1" />
  <metadata
     id="metadata5">
    <rdf:RDF>
      <cc:Work
         rdf:about="">
        <dc:format>image/svg+xml</dc:format>
        <dc:type
           rdf:resource="http://purl.org/dc/dcmitype/StillImage" />
        <dc:title />
      </cc:Work>
    </rdf:RDF>
  </metadata>
  <g
     inkscape:label="Layer 1"
     inkscape:groupmode="layer"
     id="layer1"
     transform="translate(-49.666375,-17.343656)">
    <g
       aria-label="Azabache"
       style="font-style:normal;font-variant:normal;font-weight:normal;font-stretch:normal;font-size:2.64583325px;line-height:1.25;font-family:Dosis;-inkscape-font-specification:'Dosis, Normal';font-variant-ligatures:normal;font-variant-caps:normal;font-variant-numeric:normal;font-feature-settings:normal;text-align:justify;letter-spacing:0px;word-spacing:0px;writing-mode:lr-tb;text-anchor:start;fill:#000000;fill-opacity:1;stroke:none;stroke-width:0.26458332"
       id="text863">
      <path
         d="m 55.006274,25.405178 0.199815,-0.496094 h 1.694987 l 0.199816,0.496094 z m -0.385851,0.992187 0.192925,-0.496093 h 2.473579 l 0.213596,0.496093 z m -0.385851,0.992188 0.192926,-0.496094 h 3.25217 l 0.206706,0.496094 z m -4.030762,1.364258 h -0.537435 l 4.513076,-11.410157 h 0.537435 l 4.506185,11.410157 H 58.692526 L 54.448168,18.012003 Z m 4.30637,-9.563586 0.282498,0.633898 -3.527778,8.929688 h -0.530545 z m 0.551215,1.309137 0.261827,0.682129 -2.983452,7.57232 h -0.537435 z m 0.523655,1.364258 0.261827,0.695909 -2.446018,6.194282 h -0.530545 z m 6.84196,6.890191 H 61.889575 L 57.38339,17.343654 h 0.530544 z M 56.845955,17.343654 61.35903,28.753811 H 60.828485 L 56.31541,17.343654 Z m -1.06798,0 4.513075,11.410157 H 59.753615 L 55.24743,17.343654 Z"
         style="font-style:normal;font-variant:normal;font-weight:normal;font-stretch:normal;font-size:14.11111164px;font-family:Monoton;-inkscape-font-specification:'Monoton, Normal';font-variant-ligatures:normal;font-variant-caps:normal;font-variant-numeric:normal;font-feature-settings:normal;text-align:justify;writing-mode:lr-tb;text-anchor:start;stroke-width:0.26458332"
         id="path815"
         inkscape:connector-curvature="0" />
      <path
         d="m 72.231752,26.273342 v 0.496094 h -3.851617 l 0.316948,-0.496094 z m 0,0.992188 v 0.496093 h -4.464844 l 0.310058,-0.496093 z m 0,0.992187 v 0.496094 h -5.01606 l 0.303169,-0.496094 z m -8.9917,-6.938422 v -0.496094 h 3.858507 l -0.310058,0.496094 z m 0,-0.992188 v -0.496094 h 4.437283 l -0.316949,0.496094 z m 0,-0.992188 v -0.496093 h 4.995389 l -0.33073,0.496093 z m 3.493327,9.418892 h -0.613227 l 6.173611,-9.914985 v 0.840603 z m -1.226454,0 h -0.606337 l 6.187392,-9.914985 h 0.599446 z m -1.226454,0 h -0.606337 l 6.173611,-9.914985 h 0.613227 z m -1.219564,0 v -1.005968 l 5.567275,-8.909017 h 0.613227 z"
         style="font-style:normal;font-variant:normal;font-weight:normal;font-stretch:normal;font-size:14.11111164px;font-family:Monoton;-inkscape-font-specification:'Monoton, Normal';font-variant-ligatures:normal;font-variant-caps:normal;font-variant-numeric:normal;font-feature-settings:normal;text-align:justify;writing-mode:lr-tb;text-anchor:start;stroke-width:0.26458332"
         id="path817"
         inkscape:connector-curvature="0" />
      <path
         d="m 80.437969,23.861775 q 0,-0.881944 -0.544325,-1.364258 -0.544326,-0.482313 -1.44005,-0.482313 -0.757921,0 -1.302247,0.523654 -0.544325,0.523655 -0.544325,1.254015 0,0.413412 0.110243,0.744141 0.110243,0.323839 0.296279,0.544325 0.192925,0.213596 0.454752,0.35829 0.261827,0.137804 0.544325,0.199815 0.289388,0.06201 0.613227,0.06201 0.785482,0 1.43316,-0.385851 v 0.496094 q -0.668348,0.3514 -1.44005,0.3514 -0.496094,0 -0.937066,-0.130914 -0.434082,-0.137803 -0.792372,-0.406521 -0.35829,-0.275608 -0.571886,-0.744141 -0.206705,-0.475423 -0.206705,-1.08865 0,-0.950846 0.668348,-1.612305 0.668349,-0.661458 1.674317,-0.661458 1.10932,0 1.791449,0.627007 0.689019,0.620118 0.689019,1.715658 v 4.892036 h -0.496093 z m 1.488281,0 v 4.892036 h -0.496094 v -4.892036 q 0,-1.302246 -0.833713,-2.067057 -0.833713,-0.771702 -2.142849,-0.771702 -1.212674,0 -2.025717,0.806153 -0.813042,0.806152 -0.813042,1.963704 0,0.7028 0.241156,1.260905 0.248047,0.558106 0.668349,0.895725 0.420302,0.337619 0.937066,0.516764 0.523655,0.172255 1.102431,0.172255 0.785481,0 1.495171,-0.36518 v 0.523655 q -0.744141,0.310058 -1.502062,0.310058 -0.682128,0 -1.295356,-0.206706 -0.613227,-0.213595 -1.09554,-0.613227 -0.482313,-0.406521 -0.764811,-1.047309 -0.282498,-0.647678 -0.282498,-1.44694 0,-1.357367 0.957737,-2.308214 0.964626,-0.957736 2.377116,-0.957736 0.992187,0 1.777669,0.406521 0.785482,0.399631 1.240234,1.164442 0.454753,0.764811 0.454753,1.763889 z m 0.992187,0 v 4.892036 h -0.496093 v -4.892036 q 0,-1.136881 -0.523655,-2.011936 -0.516764,-0.881944 -1.419379,-1.350477 -0.902615,-0.468533 -2.025716,-0.468533 -1.06798,0 -1.949925,0.509874 -0.881944,0.502984 -1.384928,1.364258 -0.496094,0.861274 -0.496094,1.887912 0,0.881945 0.323839,1.612305 0.323839,0.72347 0.868164,1.192003 0.551216,0.468533 1.247125,0.73036 0.702799,0.254937 1.467611,0.254937 0.778591,0 1.529622,-0.323839 v 0.502984 q -0.785482,0.296279 -1.543403,0.296279 -1.192003,0 -2.191081,-0.537435 -0.999077,-0.537435 -1.598524,-1.522733 -0.599447,-0.985297 -0.599447,-2.204861 0,-0.868164 0.33073,-1.653646 0.337619,-0.785481 0.909505,-1.357367 0.571886,-0.571886 1.378038,-0.909506 0.806153,-0.337619 1.708768,-0.337619 1.260905,0 2.273763,0.537435 1.019748,0.537435 1.605414,1.529622 0.585666,0.992188 0.585666,2.259983 z m 0.992188,0 v 4.892036 h -0.496094 v -4.892036 q 0,-1.405599 -0.654568,-2.508029 -0.654568,-1.109321 -1.784559,-1.708768 -1.129992,-0.606337 -2.52181,-0.606337 -1.336698,0 -2.446018,0.640788 -1.109321,0.640788 -1.743219,1.736328 -0.633897,1.08865 -0.633897,2.377116 0,0.847494 0.268717,1.612305 0.275608,0.757921 0.744141,1.329807 0.475423,0.564996 1.08865,0.978407 0.620117,0.413411 1.329807,0.627007 0.71658,0.213596 1.45383,0.213596 0.813043,0 1.543403,-0.310058 v 0.509874 q -0.764811,0.268717 -1.570963,0.268717 -0.833714,0 -1.626086,-0.234266 -0.785481,-0.234267 -1.46072,-0.689019 -0.668349,-0.461643 -1.178223,-1.08176 -0.509874,-0.627008 -0.799262,-1.460721 -0.289388,-0.833713 -0.289388,-1.763889 0,-1.067979 0.399631,-2.032606 0.406521,-0.971517 1.102431,-1.674317 0.702799,-0.709689 1.694987,-1.123101 0.999077,-0.420302 2.122179,-0.420302 1.143771,0 2.149739,0.385851 1.005968,0.385851 1.736328,1.07487 0.730361,0.682129 1.150662,1.681207 0.420302,0.999077 0.420302,2.1773 z"
         style="font-style:normal;font-variant:normal;font-weight:normal;font-stretch:normal;font-size:14.11111164px;font-family:Monoton;-inkscape-font-specification:'Monoton, Normal';font-variant-ligatures:normal;font-variant-caps:normal;font-variant-numeric:normal;font-feature-settings:normal;text-align:justify;writing-mode:lr-tb;text-anchor:start;stroke-width:0.26458332"
         id="path819"
         inkscape:connector-curvature="0" />
      <path
         d="m 92.909216,23.737752 -0.01378,-0.0069 q 0.778592,-0.757921 0.778592,-1.846571 0,-1.033528 -0.771702,-1.791449 -0.764811,-0.764812 -1.81212,-0.764812 h -5.457031 v 9.425782 H 85.13708 v -9.921875 h 5.953125 q 0.813043,0 1.522732,0.420301 0.71658,0.413412 1.136882,1.123101 0.420302,0.7028 0.420302,1.508952 0,1.102431 -0.592557,1.894803 0.592557,0.819933 0.592557,1.80523 0,0.943956 -0.427192,1.667426 -0.427192,0.71658 -1.123101,1.08176 -0.68902,0.36518 -1.529623,0.36518 h -3.135037 v -0.496093 h 3.135037 q 1.06109,0 1.819011,-0.751031 0.764811,-0.757921 0.764811,-1.867242 0,-0.509874 -0.220486,-1.005968 -0.220486,-0.496094 -0.551216,-0.833713 0,-0.0069 0.0069,-0.0069 z m -1.819011,2.480469 h -3.135037 v 0.496093 h 3.135037 q 0.454753,0 0.771702,-0.303168 0.323839,-0.310059 0.323839,-0.826823 0,-0.447863 -0.33073,-0.785482 -0.330729,-0.344509 -0.764811,-0.344509 h -3.141927 v 0.496093 h 3.141927 q 0.234267,0 0.413412,0.192926 0.186035,0.192925 0.186035,0.440972 0,0.303168 -0.172255,0.468533 -0.172255,0.165365 -0.427192,0.165365 z m 0,0.992187 h -3.135037 v 0.496094 h 3.135037 q 0.854384,0 1.467611,-0.606337 0.620117,-0.613227 0.620117,-1.515842 0,-0.571886 -0.310059,-1.07487 -0.303168,-0.509874 -0.806152,-0.785482 0.502984,-0.261827 0.806152,-0.74414 0.310059,-0.489204 0.310059,-1.095541 0,-0.826823 -0.627007,-1.44005 -0.620118,-0.620117 -1.460721,-0.620117 h -4.960938 v 8.929688 h 0.496094 v -8.433594 h 4.464844 q 0.633898,0 1.109321,0.475423 0.482313,0.468533 0.482313,1.08865 0,0.689019 -0.468533,1.136882 -0.468533,0.440972 -1.123101,0.440972 h -1.515842 -1.619195 v 0.496094 h 1.619195 1.515842 q 0.633898,0 1.109321,0.489203 0.482313,0.489204 0.482313,1.136882 0,0.71658 -0.468533,1.171332 -0.468533,0.454753 -1.123101,0.454753 z m 0,-4.740452 h -3.135037 v 0.496094 h 3.135037 q 0.461643,0 0.778592,-0.289388 0.316949,-0.296278 0.316949,-0.792372 0,-0.420301 -0.33073,-0.74414 -0.330729,-0.323839 -0.764811,-0.323839 h -3.96875 v 7.9375 h 0.496094 v -7.441407 h 3.472656 q 0.234267,0 0.413412,0.179145 0.186035,0.172255 0.186035,0.392741 0,0.282498 -0.172255,0.434082 -0.172255,0.151584 -0.427192,0.151584 z"
         style="font-style:normal;font-variant:normal;font-weight:normal;font-stretch:normal;font-size:14.11111164px;font-family:Monoton;-inkscape-font-specification:'Monoton, Normal';font-variant-ligatures:normal;font-variant-caps:normal;font-variant-numeric:normal;font-feature-settings:normal;text-align:justify;writing-mode:lr-tb;text-anchor:start;stroke-width:0.26458332"
         id="path821"
         inkscape:connector-curvature="0" />
      <path
         d="m 102.34878,23.861775 q 0,-0.881944 -0.54433,-1.364258 -0.54432,-0.482313 -1.44005,-0.482313 -0.757919,0 -1.302244,0.523654 -0.544325,0.523655 -0.544325,1.254015 0,0.413412 0.110243,0.744141 0.110243,0.323839 0.296278,0.544325 0.192926,0.213596 0.454753,0.35829 0.261827,0.137804 0.544325,0.199815 0.28939,0.06201 0.61323,0.06201 0.78548,0 1.43316,-0.385851 v 0.496094 q -0.66835,0.3514 -1.44005,0.3514 -0.4961,0 -0.937069,-0.130914 -0.434082,-0.137803 -0.792372,-0.406521 -0.35829,-0.275608 -0.571886,-0.744141 -0.206706,-0.475423 -0.206706,-1.08865 0,-0.950846 0.668349,-1.612305 0.668348,-0.661458 1.674314,-0.661458 1.10932,0 1.79145,0.627007 0.68902,0.620118 0.68902,1.715658 v 4.892036 h -0.49609 z m 1.48828,0 v 4.892036 h -0.4961 v -4.892036 q 0,-1.302246 -0.83371,-2.067057 -0.83371,-0.771702 -2.14285,-0.771702 -1.212672,0 -2.025714,0.806153 -0.813043,0.806152 -0.813043,1.963704 0,0.7028 0.241157,1.260905 0.248047,0.558106 0.668349,0.895725 0.420301,0.337619 0.937066,0.516764 0.523654,0.172255 1.102435,0.172255 0.78548,0 1.49517,-0.36518 v 0.523655 q -0.74414,0.310058 -1.50206,0.310058 -0.682134,0 -1.295361,-0.206706 -0.613227,-0.213595 -1.09554,-0.613227 -0.482314,-0.406521 -0.764812,-1.047309 -0.282497,-0.647678 -0.282497,-1.44694 0,-1.357367 0.957736,-2.308214 0.964627,-0.957736 2.377114,-0.957736 0.99219,0 1.77767,0.406521 0.78548,0.399631 1.24024,1.164442 0.45475,0.764811 0.45475,1.763889 z m 0.99219,0 v 4.892036 h -0.4961 v -4.892036 q 0,-1.136881 -0.52365,-2.011936 -0.51677,-0.881944 -1.41938,-1.350477 -0.90262,-0.468533 -2.02572,-0.468533 -1.067978,0 -1.949922,0.509874 -0.881944,0.502984 -1.384928,1.364258 -0.496094,0.861274 -0.496094,1.887912 0,0.881945 0.323839,1.612305 0.323839,0.72347 0.868164,1.192003 0.551215,0.468533 1.247125,0.73036 0.702799,0.254937 1.467606,0.254937 0.7786,0 1.52963,-0.323839 v 0.502984 q -0.78549,0.296279 -1.54341,0.296279 -1.191999,0 -2.191077,-0.537435 -0.999078,-0.537435 -1.598524,-1.522733 -0.599447,-0.985297 -0.599447,-2.204861 0,-0.868164 0.330729,-1.653646 0.33762,-0.785481 0.909505,-1.357367 0.571886,-0.571886 1.378039,-0.909506 0.806152,-0.337619 1.708765,-0.337619 1.26091,0 2.27377,0.537435 1.01974,0.537435 1.60541,1.529622 0.58567,0.992188 0.58567,2.259983 z m 0.99218,0 v 4.892036 h -0.49609 v -4.892036 q 0,-1.405599 -0.65457,-2.508029 -0.65457,-1.109321 -1.78456,-1.708768 -1.12999,-0.606337 -2.52181,-0.606337 -1.336695,0 -2.446016,0.640788 -1.109321,0.640788 -1.743218,1.736328 -0.633898,1.08865 -0.633898,2.377116 0,0.847494 0.268718,1.612305 0.275607,0.757921 0.74414,1.329807 0.475424,0.564996 1.088651,0.978407 0.620117,0.413411 1.329807,0.627007 0.716579,0.213596 1.453826,0.213596 0.81305,0 1.54341,-0.310058 v 0.509874 q -0.76481,0.268717 -1.57097,0.268717 -0.83371,0 -1.626082,-0.234266 -0.785482,-0.234267 -1.460721,-0.689019 -0.668348,-0.461643 -1.178222,-1.08176 -0.509874,-0.627008 -0.799262,-1.460721 -0.289388,-0.833713 -0.289388,-1.763889 0,-1.067979 0.399631,-2.032606 0.406521,-0.971517 1.10243,-1.674317 0.7028,-0.709689 1.694987,-1.123101 0.999078,-0.420302 2.122177,-0.420302 1.14377,0 2.14974,0.385851 1.00597,0.385851 1.73633,1.07487 0.73036,0.682129 1.15066,1.681207 0.4203,0.999077 0.4203,2.1773 z"
         style="font-style:normal;font-variant:normal;font-weight:normal;font-stretch:normal;font-size:14.11111164px;font-family:Monoton;-inkscape-font-specification:'Monoton, Normal';font-variant-ligatures:normal;font-variant-caps:normal;font-variant-numeric:normal;font-feature-settings:normal;text-align:justify;writing-mode:lr-tb;text-anchor:start;stroke-width:0.26458332"
         id="path823"
         inkscape:connector-curvature="0" />
      <path
         d="m 114.18613,22.24947 -0.39963,0.303169 q -0.59945,-0.744141 -1.54341,-0.744141 -0.81993,0 -1.4056,0.585666 -0.57877,0.578776 -0.57877,1.398709 0,0.819933 0.57877,1.405599 0.58567,0.578776 1.4056,0.578776 0.46165,0 0.86128,-0.199815 0.40652,-0.199816 0.68902,-0.551216 l 0.38585,0.323839 q -0.34451,0.434082 -0.85439,0.682129 -0.50987,0.241157 -1.08176,0.241157 -1.02664,0 -1.757,-0.72347 -0.72347,-0.73036 -0.72347,-1.756999 0,-1.026638 0.72347,-1.750108 0.73036,-0.730361 1.757,-0.730361 0.57878,0 1.08865,0.254937 0.50988,0.248047 0.85439,0.682129 z m 0.7717,-0.620117 -0.39274,0.303169 q -0.41341,-0.523655 -1.02664,-0.819933 -0.60634,-0.296278 -1.29536,-0.296278 -1.23334,0 -2.1084,0.875054 -0.86816,0.875054 -0.86816,2.101508 0,1.226454 0.86816,2.101509 0.87506,0.875054 2.1084,0.875054 0.68902,0 1.30225,-0.296278 0.61323,-0.303169 1.02664,-0.826823 l 0.37896,0.316948 q -0.48232,0.606337 -1.19201,0.957737 -0.70968,0.34451 -1.51584,0.34451 -0.94395,0 -1.74322,-0.461643 -0.79926,-0.468533 -1.26779,-1.267795 -0.46164,-0.799263 -0.46164,-1.743219 0,-0.943956 0.46164,-1.743218 0.46853,-0.799262 1.26779,-1.260905 0.79927,-0.468533 1.74322,-0.468533 0.80616,0 1.51584,0.3514 0.71658,0.344509 1.1989,0.957736 z m 0.77859,-0.620117 -0.38585,0.310059 q -0.55811,-0.69591 -1.37115,-1.095541 -0.81304,-0.399631 -1.73633,-0.399631 -0.80615,0 -1.5434,0.316949 -0.73036,0.310058 -1.2678,0.847493 -0.53054,0.530545 -0.84749,1.267796 -0.31006,0.73036 -0.31006,1.536512 0,0.806153 0.31006,1.543403 0.31695,0.73036 0.84749,1.267795 0.53744,0.530545 1.2678,0.847494 0.73725,0.310058 1.5434,0.310058 0.92329,0 1.73633,-0.399631 0.81304,-0.399631 1.37115,-1.09554 l 0.37207,0.323839 q -0.62701,0.778591 -1.53651,1.226454 -0.90951,0.440972 -1.94304,0.440972 -0.9095,0 -1.73633,-0.3514 -0.82682,-0.35829 -1.42627,-0.950846 -0.59255,-0.599447 -0.95084,-1.42627 -0.3514,-0.826823 -0.3514,-1.736328 0,-0.909505 0.3514,-1.736328 0.35829,-0.826823 0.95084,-1.419379 0.59945,-0.599447 1.42627,-0.950847 0.82683,-0.35829 1.73633,-0.35829 1.04042,0 1.94993,0.447863 0.91639,0.447862 1.5434,1.233344 z m 0.7717,-0.620117 -0.39963,0.296278 q -0.69591,-0.861274 -1.70877,-1.357368 -1.00597,-0.496093 -2.15663,-0.496093 -1.00597,0 -1.92925,0.39274 -0.9164,0.392741 -1.58474,1.06109 -0.66146,0.661458 -1.0542,1.584744 -0.39275,0.916395 -0.39275,1.922363 0,1.005968 0.39275,1.929254 0.39274,0.916395 1.0542,1.584744 0.66834,0.661458 1.58474,1.054199 0.92328,0.392741 1.92925,0.392741 1.15066,0 2.15663,-0.496094 1.01286,-0.496094 1.70877,-1.357368 l 0.39274,0.303169 q -0.76481,0.950846 -1.88102,1.502062 -1.10932,0.544325 -2.37712,0.544325 -1.10932,0 -2.12218,-0.434082 -1.00596,-0.434082 -1.73632,-1.164443 -0.73036,-0.73036 -1.16445,-1.736328 -0.43408,-1.012858 -0.43408,-2.122179 0,-1.109321 0.43408,-2.115289 0.43409,-1.012858 1.16445,-1.743218 0.73036,-0.73036 1.73632,-1.164442 1.01286,-0.434082 2.12218,-0.434082 1.2678,0 2.38401,0.551215 1.11621,0.544325 1.88102,1.502062 z"
         style="font-style:normal;font-variant:normal;font-weight:normal;font-stretch:normal;font-size:14.11111164px;font-family:Monoton;-inkscape-font-specification:'Monoton, Normal';font-variant-ligatures:normal;font-variant-caps:normal;font-variant-numeric:normal;font-feature-settings:normal;text-align:justify;writing-mode:lr-tb;text-anchor:start;stroke-width:0.26458332"
         id="path825"
         inkscape:connector-curvature="0" />
      <path
         d="m 127.36706,18.831936 h 0.49609 v 9.921875 h -0.49609 z m -9.92877,0 h 0.4961 v 9.921875 h -0.4961 z m 8.93658,0 h 0.49609 v 9.921875 h -0.49609 z m -0.99219,0 h 0.4961 v 9.921875 h -0.4961 z m -0.99218,0 h 0.49609 v 9.921875 h -0.49609 v -3.96875 h -3.47955 v 3.96875 h -0.4961 v -9.921875 h 0.4961 v 3.472656 h 3.47955 z m -4.96783,0 h 0.49609 v 9.921875 h -0.49609 z m -0.99219,0 h 0.49609 v 9.921875 h -0.49609 z m 5.96002,5.457031 v -0.496094 h -3.47955 v 0.496094 z m 0,-0.992188 v -0.496093 h -3.47955 v 0.496093 z"
         style="font-style:normal;font-variant:normal;font-weight:normal;font-stretch:normal;font-size:14.11111164px;font-family:Monoton;-inkscape-font-specification:'Monoton, Normal';font-variant-ligatures:normal;font-variant-caps:normal;font-variant-numeric:normal;font-feature-settings:normal;text-align:justify;writing-mode:lr-tb;text-anchor:start;stroke-width:0.26458332"
         id="path827"
         inkscape:connector-curvature="0" />
      <path
         d="M 131.63209,28.753811 H 131.136 v -9.921875 h 0.49609 z m -0.99218,0 h -0.4961 v -9.921875 h 0.4961 z m -0.99219,0 h -0.49609 v -9.921875 h 0.49609 z m 2.97656,-2.480469 h 4.74734 v 0.496094 h -4.74734 v 0.496094 h 4.74734 v 0.496093 h -4.74734 v 0.496094 h 4.74734 v 0.496094 h -5.24343 v -9.921875 h 5.24343 v 0.496093 h -4.74734 v 0.496094 h 4.74734 v 0.496094 h -4.74734 v 0.496094 h 4.74734 v 0.496093 h -4.74734 v 1.233345 h 4.47174 v 0.496093 h -4.47174 v 0.496094 h 4.47174 v 0.496094 h -4.47174 v 0.496094 h 4.47174 v 0.496093 h -4.47174 z"
         style="font-style:normal;font-variant:normal;font-weight:normal;font-stretch:normal;font-size:14.11111164px;font-family:Monoton;-inkscape-font-specification:'Monoton, Normal';font-variant-ligatures:normal;font-variant-caps:normal;font-variant-numeric:normal;font-feature-settings:normal;text-align:justify;writing-mode:lr-tb;text-anchor:start;stroke-width:0.26458332"
         id="path829"
         inkscape:connector-curvature="0" />
    </g>
  </g>
</svg>
